<svg xmlns="http://www.w3.org/2000/svg" viewBox="0 0 1280 720" width="1280" height="720">
  <rect width="1280" height="720" fill="#FFFFFF" />
  <defs>
    <linearGradient id="titleGradient" x1="0%" y1="0%" x2="100%" y2="0%">
      <stop offset="0%" stop-color="#FF6B35" />
      <stop offset="100%" stop-color="#004E89" />
    </linearGradient>
  </defs>
  <rect x="0" y="0" width="1280" height="8" fill="#FF6B35" />

  
  <text x="640" y="80" font-family="Microsoft YaHei, Arial, sans-serif" font-size="56" font-weight="bold" text-anchor="middle" fill="url(#titleGradient)">
    聚合搜索 &amp; AI 对话
  </text>

  
  <text x="100" y="180" font-family="Microsoft YaHei, Arial, sans-serif" font-size="32" font-weight="bold" fill="#333333">
    聚合搜索
  </text>
  <text x="100" y="240" font-family="Microsoft YaHei, Arial, sans-serif" font-size="24" fill="#666666">
    搜索"运动鞋"，同时看到
  </text>
  <text x="100" y="280" font-family="Microsoft YaHei, Arial, sans-serif" font-size="24" fill="#666666">
    淘宝/京东/拼多多结果
  </text>

  <text x="100" y="360" font-family="Microsoft YaHei, Arial, sans-serif" font-size="32" font-weight="bold" fill="#333333">
    AI 聊天推荐
  </text>
  <text x="100" y="420" font-family="Microsoft YaHei, Arial, sans-serif" font-size="24" fill="#666666">
    告诉 AI 需求，AI 直接推荐
  </text>
  <text x="100" y="460" font-family="Microsoft YaHei, Arial, sans-serif" font-size="24" fill="#666666">
    最合适的商品
  </text>

  
  <path fill="#F5F5F5" stroke="#DDDDDD" stroke-width="2" d="M708,140 H1212 A8,8 0 0 1 1220,148 V672 A8,8 0 0 1 1212,680 H708 A8,8 0 0 1 700,672 V148 A8,8 0 0 1 708,140 Z" />
  <text x="960" y="420" font-family="Microsoft YaHei, Arial, sans-serif" font-size="32" text-anchor="middle" fill="#999999">
    [产品截图：AI聊天页.png]
  </text>

  <rect x="0" y="712" width="1280" height="8" fill="#FF6B35" />
</svg>